<svg xmlns="http://www.w3.org/2000/svg" viewBox="55 90 410 190" fill="none" aria-hidden="true">
  <path d="M0 0 C0 0.99 0 1.98 0 3 C-1.63631892 4.04892238 -3.30485863 5.04906703 -5 6 C-5.33 6.66 -5.66 7.32 -6 8 C-7.99065541 9.01847486 -9.99248185 10.01517978 -12 11 C-13.0725 11.721875 -14.145 12.44375 -15.25 13.1875 C-18 15 -18 15 -20 15 C-20 15.66 -20 16.32 -20 17 C-21.9765625 18.3671875 -21.9765625 18.3671875 -24.625 19.875 C-27.6545137 21.62576712 -30.6285611 23.37499281 -33.5 25.375 C-36 27 -36 27 -38 27 C-38 27.66 -38 28.32 -38 29 C-39.609375 30.33203125 -39.609375 30.33203125 -41.75 31.8125 C-45.10885943 34.22779291 -47.47792198 36.70189798 -50 40 C-50.66 40 -51.32 40 -52 40 C-52.103125 40.639375 -52.20625 41.27875 -52.3125 41.9375 C-52.88874729 44.50441974 -53.63246927 46.68147588 -54.5625 49.125 C-57.54272405 57.90497378 -56.64001524 67.22003309 -52.82421875 75.57421875 C-51.58806214 78.07205733 -50.30623095 80.53825706 -49 83 C-48.32971262 84.33151682 -47.66176023 85.66422471 -47 87 C-46.34 87 -45.68 87 -45 87 C-44.401875 87.825 -43.80375 88.65 -43.1875 89.5 C-35.15140552 99.49784695 -18.5522939 106.57714681 -6 108 C9.75285401 109.20180224 26.44696419 106.16051978 39.22265625 96.28125 C40.83539641 94.87713947 42.42087397 93.44181073 44 92 C44.66 92 45.32 92 46 92 C46.99 90.02 46.99 90.02 48 88 C55.17059703 88.50027421 61.39256875 91.32303428 68 94 C69.39157403 94.55557264 70.78351173 95.11023508 72.17578125 95.6640625 C75.78691037 97.10184251 79.39427165 98.54873174 83 100 C83 100.66 83 101.32 83 102 C86.96 102.99 86.96 102.99 91 104 C92 108 92 108 91.07421875 109.921875 C90.61660156 110.52515625 90.15898437 111.1284375 89.6875 111.75 C89.23761719 112.36359375 88.78773438 112.9771875 88.32421875 113.609375 C87.88722656 114.06828125 87.45023438 114.5271875 87 115 C86.34 115 85.68 115 85 115 C84.74863281 115.58910156 84.49726563 116.17820312 84.23828125 116.78515625 C82.84544599 119.27644202 81.3791428 120.62300414 79.1875 122.4375 C76.86348023 124.39566335 74.72213094 126.29249375 72.625 128.5 C54.29273607 145.95929898 28.43808153 153.22127707 3.75 153.3125 C2.67355225 153.31797852 1.59710449 153.32345703 0.48803711 153.32910156 C-6.84788925 153.26399809 -13.80324963 152.38443267 -21 151 C-21.77988281 150.8654541 -22.55976563 150.7309082 -23.36328125 150.59228516 C-39.00736878 147.84516457 -55.09970596 139.21548538 -67 129 C-67.82242188 128.31035156 -68.64484375 127.62070313 -69.4921875 126.91015625 C-75.41540851 121.7881004 -80.35185157 116.29436767 -85 110 C-85.433125 109.42121094 -85.86625 108.84242188 -86.3125 108.24609375 C-88.60911713 105.01225419 -89.91367162 101.80214932 -91 98 C-91.66 98 -92.32 98 -93 98 C-95.05929543 92.89652871 -96.28935515 88.48211745 -97 83 C-97.350625 82.0925 -97.70125 81.185 -98.0625 80.25 C-102.35926861 65.35453547 -97.16810751 45.79044505 -90.1875 32.56640625 C-87.91373614 28.62047855 -85.5258448 24.7887672 -83 21 C-82.34 21 -81.68 21 -81 21 C-80.76667969 20.43796875 -80.53335938 19.8759375 -80.29296875 19.296875 C-73.66079174 7.51524334 -58.2414249 0.36958153 -45.875 -3.5 C-30.50330651 -7.136836 -14.57215106 -5.98499062 0 0 Z" fill="#060606" transform="translate(249,111)"/>
  <path d="M0 0 C1.553088 0.82111087 3.08762757 1.6779303 4.60546875 2.5625 C8.44116153 4.63584745 12.42463766 6.14145101 16.49609375 7.6875 C17.6725647 8.13754395 17.6725647 8.13754395 18.87280273 8.59667969 C20.3944082 9.17825831 21.91644715 9.75870435 23.43896484 10.33789062 C27.47803606 11.88334109 31.48569189 13.50703673 35.49609375 15.125 C36.26308594 15.42792969 37.03007812 15.73085937 37.8203125 16.04296875 C39.79177518 16.84018797 41.74244547 17.68929912 43.6796875 18.56640625 C73.04665729 31.17259943 107.25275409 31.7048482 138.49609375 33.125 C138.49609375 48.635 138.49609375 64.145 138.49609375 80.125 C125.62337256 80.125 113.42845992 79.9451246 100.74609375 78.4375 C99.97605011 78.34885681 99.20600647 78.26021362 98.41262817 78.16888428 C78.15531504 75.82106416 58.80215426 71.72877185 39.49609375 65.125 C37.87311657 64.57339567 36.24941881 64.02390683 34.625 63.4765625 C33.89740479 63.22986816 33.16980957 62.98317383 32.42016602 62.72900391 C30.40134518 62.05449902 30.40134518 62.05449902 27.87109375 61.625 C25.2373004 61.07051719 22.93005354 60.09136016 20.48046875 58.9921875 C18.36356584 58.06708426 16.21863897 57.25657755 14.05859375 56.4375 C-7.30497915 47.87296779 -27.67920368 35.73146223 -47.50390625 24.125 C-47.50390625 22.805 -47.50390625 21.485 -47.50390625 20.125 C-46.72015625 19.8775 -45.93640625 19.63 -45.12890625 19.375 C-42.40202498 18.43161851 -42.40202498 18.43161851 -41.7421875 16.33984375 C-39.93063558 13.09962312 -37.09045515 11.44361769 -34.06640625 9.4375 C-33.48052734 9.03466797 -32.89464844 8.63183594 -32.29101562 8.21679688 C-29.71549593 6.47152417 -27.46959914 5.1135643 -24.50390625 4.125 C-24.05015625 3.650625 -23.59640625 3.17625 -23.12890625 2.6875 C-17.53304507 -2.69313575 -6.89953181 -2.41106884 0 0 Z" fill="#060606" transform="translate(305.50390625,147.875)"/>
  <path d="M0 0 C13.63880813 10.49430515 22.90834874 24.25600966 27 41 C27 42.32 27 43.64 27 45 C20.36080974 44.75180597 14.99273824 43.94458726 9.015625 40.98828125 C6.42573025 39.71842976 3.75302335 38.84708411 1 38 C1 37.34 1 36.68 1 36 C0.29230469 36.05671875 -0.41539062 36.1134375 -1.14453125 36.171875 C-4.6126413 35.96312419 -6.6376148 34.89506492 -9.6875 33.25 C-23.40231577 26.0020365 -23.40231577 26.0020365 -38.5 26.6953125 C-48.00403115 30.22962408 -56.12681026 36.00116598 -64.21484375 41.99609375 C-66.91977988 43.94228202 -69.67406274 45.73529665 -72.5 47.5 C-76.21987626 49.82558035 -79.78752517 52.26352524 -83.3125 54.875 C-92.3207921 61.50592543 -101.69923923 67.49482252 -111.59765625 72.7109375 C-114.07665176 73.98906766 -114.07665176 73.98906766 -116.55859375 75.7265625 C-119 77 -119 77 -121.08984375 76.89453125 C-126.00711196 74.59176148 -129.1955124 70.07591555 -131.1171875 65.1171875 C-133.74130273 55.34548223 -134.48516015 44.94716309 -129.82421875 35.65625 C-127.50488609 31.77017049 -127.50488609 31.77017049 -126 30 C-125.34 30 -124.68 30 -124 30 C-124 29.34 -124 28.68 -124 28 C-123.34 28 -122.68 28 -122 28 C-122 27.34 -122 26.68 -122 26 C-120.34467377 24.98133771 -118.67739862 23.98189187 -117 23 C-116.67 22.34 -116.34 21.68 -116 21 C-114.02111039 20.27306096 -112.02045442 19.60183749 -110 19 C-110 18.34 -110 17.68 -110 17 C-107.86376953 15.39941406 -107.86376953 15.39941406 -104.8828125 13.515625 C-103.8 12.82726562 -102.7171875 12.13890625 -101.6015625 11.4296875 C-100.44274795 10.70306181 -99.28389356 9.97649966 -98.125 9.25 C-97.01640625 8.54617187 -95.9078125 7.84234375 -94.765625 7.1171875 C-75.72397787 -4.93505503 -75.72397787 -4.93505503 -67.9375 -8.25 C-66.83277344 -8.72953125 -65.72804688 -9.2090625 -64.58984375 -9.703125 C-42.24474188 -17.77556659 -19.22042194 -13.04915901 0 0 Z" fill="#060606" transform="translate(328,119)"/>
  <path d="M0 0 C0.07516846 0.75095947 0.15033691 1.50191895 0.2277832 2.27563477 C0.57776565 5.70588604 0.944974 9.13408585 1.3125 12.5625 C1.48942383 14.33463867 1.48942383 14.33463867 1.66992188 16.14257812 C2.34743729 22.34445 3.16750245 27.432937 6 33 C7.37464322 37.19627931 8.09742455 40.60840098 8 45 C4.98032674 45.77561151 1.95936173 46.54549655 -1.0625 47.3125 C-1.89072266 47.52583984 -2.71894531 47.73917969 -3.57226562 47.95898438 C-16.46078969 51.21759235 -29.32303934 53.49392617 -42.52368164 54.93530273 C-44.80184947 55.18632645 -47.07749408 55.45489678 -49.35351562 55.72460938 C-50.86706801 55.8942984 -52.38073701 56.06295107 -53.89453125 56.23046875 C-54.8657769 56.34759468 -54.8657769 56.34759468 -55.85664368 56.46708679 C-64.2822247 57.35111804 -72.41131523 57 -81 57 C-81 41.49 -81 25.98 -81 10 C-74.544375 9.5875 -68.08875 9.175 -61.4375 8.75 C-34.54696976 6.94300655 -34.54696976 6.94300655 -8.43945312 0.5859375 C-5.56740119 -0.10390684 -2.94303668 -0.0936324 0 0 Z" fill="#050505" transform="translate(147,171)"/>
  <path d="M0 0 C2 3 2 3 2 7 C-0.64 6.67 -3.28 6.34 -6 6 C-5.38125 5.7525 -4.7625 5.505 -4.125 5.25 C-1.64931313 3.79371361 -1.04874998 2.62187494 0 0 Z" fill="#555555" transform="translate(353,157)"/>
  <path d="M0 0 C1.32 0.33 2.64 0.66 4 1 C4 1.99 4 2.98 4 4 C2.02 4.99 0.04 5.98 -2 7 C-1.42415568 4.61435923 -0.77772405 2.33317216 0 0 Z" fill="#5A5A5A" transform="translate(245,110)"/>
  <path d="M0 0 C2.31 0.66 4.62 1.32 7 2 C7 3.32 7 4.64 7 6 C3.63279613 4.60667426 2.0140476 3.0210714 0 0 Z" fill="#5B5B5B" transform="translate(174,232)"/>
  <path d="M0 0 C-1.32 1.32 -2.64 2.64 -4 4 C-5.98 3.34 -7.96 2.68 -10 2 C-10 1.67 -10 1.34 -10 1 C-6.59437148 0.22157062 -3.49234244 -0.09978121 0 0 Z" fill="#414141" transform="translate(268,218)"/>
</svg>
