<svg xmlns="http://www.w3.org/2000/svg" viewBox="0 0 100 100" aria-hidden="true">
  <path
    d="M6.017 4.313l55.333-4.087c6.797-.583 8.543-.19 12.817 2.917l17.663 12.443c2.917 2.333 3.883 2.917 3.883 5.833v55.333c0 4.667-1.75 7.417-7.833 7.833l-64.5 3.883c-5.64.292-8.36-.585-10.92-4.667L4.017 65.643c-2.333-3.5-3.25-6.167-3.25-9.333V12.313c0-4.083 2.083-7.583 5.25-8z"
    fill="#fff"
  />
  <path
    fill-rule="evenodd"
    clip-rule="evenodd"
    d="M61.35.227l-55.333 4.087C1.702 4.56 0 7.27 0 12.313v44c0 3.167.917 5.833 3.25 9.333l14.35 20.667c2.56 4.082 5.28 4.96 10.92 4.667l64.5-3.883c6.083-.416 7.833-3.167 7.833-7.833V21.02c0-2.917-.966-3.5-3.883-5.833L67.167 2.744C62.893-.363 61.147-.77 54.35-.187L6.017 3.9c-1.402.094-1.682.14-2.428-.466C.863 2.956.583 2.7.583 2.7S.536 2.42.583 1.954L6.017.227z"
    fill="#000"
  />
  <path
    d="M23.725 16.123c-2.917.19-4.667 1.542-4.667 4.667v58.5c0 3.5 1.167 5.25 4.667 5.063l58.5-3.5c3.5-.19 4.667-2.333 4.667-5.833V16.79c0-3.5-1.167-5.25-4.667-5.063l-58.5 3.396zm4.667 7.583l49.583-2.917v49.583l-49.583 2.917V23.706z"
    fill="#000"
  />
</svg>
